<svg xmlns="http://www.w3.org/2000/svg" viewBox="0 9.470000267028809 220.52999877929688 46.31999969482422" data-asc="0.9052734375" width="220.52999877929688" height="46.31999969482422"><defs/><g><g><g transform="translate(0, 0)"><path d="M0 45.26L0 9.47L24.15 9.47L24.15 13.70L4.74 13.70L4.74 24.78L21.53 24.78L21.53 29.00L4.74 29.00L4.74 45.26L0 45.26ZM28.10 32.30Q28.10 25.10 32.10 21.63Q35.45 18.75 40.26 18.75Q45.61 18.75 49.00 22.25Q52.39 25.76 52.39 31.93Q52.39 36.94 50.89 39.81Q49.39 42.68 46.52 44.26Q43.65 45.85 40.26 45.85Q34.81 45.85 31.46 42.36Q28.10 38.87 28.10 32.30M32.62 32.30Q32.62 37.28 34.79 39.76Q36.96 42.24 40.26 42.24Q43.53 42.24 45.70 39.75Q47.88 37.26 47.88 32.15Q47.88 27.34 45.69 24.87Q43.51 22.39 40.26 22.39Q36.96 22.39 34.79 24.85Q32.62 27.32 32.62 32.30ZM57.50 45.26L57.50 19.34L61.45 19.34L61.45 23.27Q62.96 20.51 64.25 19.63Q65.53 18.75 67.07 18.75Q69.29 18.75 71.58 20.17L70.07 24.24Q68.46 23.29 66.85 23.29Q65.41 23.29 64.26 24.16Q63.11 25.02 62.62 26.56Q61.89 28.91 61.89 31.69L61.89 45.26L57.50 45.26ZM91.11 35.77L95.43 36.33Q94.73 40.80 91.81 43.32Q88.89 45.85 84.64 45.85Q79.32 45.85 76.09 42.37Q72.85 38.89 72.85 32.40Q72.85 28.20 74.24 25.05Q75.63 21.90 78.48 20.32Q81.32 18.75 84.67 18.75Q88.89 18.75 91.58 20.89Q94.26 23.02 95.02 26.95L90.75 27.61Q90.14 25 88.59 23.68Q87.04 22.36 84.84 22.36Q81.52 22.36 79.44 24.74Q77.37 27.12 77.37 32.28Q77.37 37.50 79.37 39.87Q81.37 42.24 84.59 42.24Q87.18 42.24 88.92 40.65Q90.65 39.06 91.11 35.77ZM116.94 36.91L121.48 37.48Q120.41 41.46 117.50 43.65Q114.60 45.85 110.08 45.85Q104.39 45.85 101.06 42.35Q97.73 38.84 97.73 32.52Q97.73 25.98 101.10 22.36Q104.47 18.75 109.84 18.75Q115.04 18.75 118.33 22.29Q121.63 25.83 121.63 32.25Q121.63 32.64 121.61 33.42L102.27 33.42Q102.51 37.70 104.69 39.97Q106.86 42.24 110.11 42.24Q112.52 42.24 114.23 40.97Q115.94 39.70 116.94 36.91M102.51 29.81L116.99 29.81Q116.70 26.54 115.33 24.90Q113.23 22.36 109.89 22.36Q106.86 22.36 104.80 24.39Q102.73 26.42 102.51 29.81ZM127.56 45.26L127.56 9.47L141.06 9.47Q144.63 9.47 146.51 9.81Q149.15 10.25 150.93 11.49Q152.71 12.72 153.80 14.94Q154.88 17.16 154.88 19.82Q154.88 24.39 151.98 27.55Q149.07 30.71 141.48 30.71L132.30 30.71L132.30 45.26L127.56 45.26M132.30 26.49L141.55 26.49Q146.14 26.49 148.07 24.78Q150 23.07 150 19.97Q150 17.72 148.86 16.13Q147.73 14.53 145.87 14.01Q144.68 13.70 141.46 13.70L132.30 13.70L132.30 26.49ZM160.25 45.26L160.25 9.47L164.65 9.47L164.65 45.26L160.25 45.26ZM188.38 42.07Q185.94 44.14 183.68 45.00Q181.42 45.85 178.83 45.85Q174.56 45.85 172.27 43.76Q169.97 41.67 169.97 38.43Q169.97 36.52 170.84 34.95Q171.70 33.37 173.11 32.42Q174.51 31.47 176.27 30.98Q177.56 30.64 180.18 30.32Q185.50 29.69 188.01 28.81Q188.04 27.91 188.04 27.66Q188.04 24.98 186.79 23.88Q185.11 22.39 181.79 22.39Q178.69 22.39 177.21 23.47Q175.73 24.56 175.02 27.32L170.73 26.73Q171.31 23.97 172.66 22.28Q174.00 20.58 176.54 19.67Q179.08 18.75 182.42 18.75Q185.74 18.75 187.82 19.53Q189.89 20.31 190.87 21.50Q191.85 22.68 192.24 24.49Q192.46 25.61 192.46 28.54L192.46 34.40Q192.46 40.53 192.74 42.15Q193.02 43.77 193.85 45.26L189.26 45.26Q188.57 43.90 188.38 42.07M188.01 32.25Q185.62 33.23 180.83 33.91Q178.13 34.30 177.00 34.79Q175.88 35.28 175.27 36.22Q174.66 37.16 174.66 38.31Q174.66 40.06 175.99 41.24Q177.32 42.41 179.88 42.41Q182.42 42.41 184.40 41.30Q186.38 40.19 187.30 38.26Q188.01 36.77 188.01 33.86L188.01 32.25ZM199.07 55.25L198.58 51.12Q200.02 51.51 201.10 51.51Q202.56 51.51 203.44 51.03Q204.32 50.54 204.88 49.66Q205.30 49.00 206.23 46.39Q206.35 46.02 206.62 45.31L196.78 19.34L201.51 19.34L206.91 34.35Q207.96 37.21 208.79 40.36Q209.55 37.33 210.60 34.45L216.14 19.34L220.53 19.34L210.67 45.70Q209.08 49.98 208.20 51.59Q207.03 53.76 205.52 54.77Q204.00 55.79 201.90 55.79Q200.63 55.79 199.07 55.25Z"/></g></g></g></svg>